<mxfile host="app.diagrams.net" modified="2022-06-02T20:12:07.606Z" agent="5.0 (Windows)" etag="-_JWdapPZdFb8S_03zX3" version="18.2.1" type="github">
  <diagram id="C5RBs43oDa-KdzZeNtuy" name="Page-1">
    <mxGraphModel dx="784" dy="1105" grid="1" gridSize="11" guides="1" tooltips="1" connect="1" arrows="1" fold="1" page="1" pageScale="1" pageWidth="827" pageHeight="1169" background="none" math="0" shadow="1">
      <root>
        <mxCell id="WIyWlLk6GJQsqaUBKTNV-0" />
        <mxCell id="WIyWlLk6GJQsqaUBKTNV-1" parent="WIyWlLk6GJQsqaUBKTNV-0" />
        <mxCell id="S22geVAku-PErsoXpBNd-16" value="&lt;ul&gt;&lt;li&gt;Bug Fixes&lt;br&gt;&lt;/li&gt;&lt;li&gt;Battle Engine&lt;/li&gt;&lt;li&gt;Item Expansion&lt;/li&gt;&lt;li&gt;Interactive Followers&lt;/li&gt;&lt;li&gt;Day/Night System&lt;/li&gt;&lt;li&gt;Wild Pokemon Drop Items&lt;br&gt;&lt;/li&gt;&lt;/ul&gt;" style="text;strokeColor=none;fillColor=none;html=1;whiteSpace=wrap;verticalAlign=middle;overflow=hidden;" parent="WIyWlLk6GJQsqaUBKTNV-1" vertex="1">
          <mxGeometry x="22" y="84" width="209" height="202" as="geometry" />
        </mxCell>
        <mxCell id="S22geVAku-PErsoXpBNd-17" value="&lt;div style=&quot;font-size: 16px;&quot;&gt;Features&lt;/div&gt;&lt;div style=&quot;font-size: 16px;&quot;&gt;&lt;br style=&quot;font-size: 16px;&quot;&gt;&lt;/div&gt;" style="text;strokeColor=none;fillColor=none;html=1;fontSize=16;fontStyle=1;verticalAlign=middle;align=center;" parent="WIyWlLk6GJQsqaUBKTNV-1" vertex="1">
          <mxGeometry x="22" y="44" width="100" height="40" as="geometry" />
        </mxCell>
        <mxCell id="S22geVAku-PErsoXpBNd-20" value="&lt;div style=&quot;font-size: 18px;&quot;&gt;Tweaks&lt;/div&gt;" style="text;strokeColor=none;fillColor=none;html=1;fontSize=24;fontStyle=1;verticalAlign=middle;align=center;" parent="WIyWlLk6GJQsqaUBKTNV-1" vertex="1">
          <mxGeometry x="22" y="396" width="100" height="40" as="geometry" />
        </mxCell>
        <mxCell id="S22geVAku-PErsoXpBNd-21" value="&lt;ul style=&quot;font-size: 12px;&quot;&gt;&lt;li style=&quot;font-size: 12px;&quot;&gt;Money_MAX = 9,999,999&lt;br&gt;&lt;/li&gt;&lt;li style=&quot;font-size: 12px;&quot;&gt;Value 2&lt;/li&gt;&lt;li style=&quot;font-size: 12px;&quot;&gt;Value 3&lt;/li&gt;&lt;/ul&gt;" style="text;strokeColor=none;fillColor=none;html=1;whiteSpace=wrap;verticalAlign=middle;overflow=hidden;fontSize=12;" parent="WIyWlLk6GJQsqaUBKTNV-1" vertex="1">
          <mxGeometry x="22" y="451" width="220" height="88" as="geometry" />
        </mxCell>
      </root>
    </mxGraphModel>
  </diagram>
</mxfile>
